<svg id="bold" enable-background="new 0 0 24 24" height="512" viewBox="0 0 24 24" width="512" xmlns="http://www.w3.org/2000/svg"><g><path d="m23.363.687c-.866-.864-2.273-.864-3.137 0l-8.247 8.247c-.293.293-.293.768 0 1.061s.768.293 1.061 0l1.016 1.016c-.293.293-.293.768 0 1.061.146.146.338.22.53.22s.384-.073.53-.22l8.247-8.247c.419-.419.65-.977.65-1.569.001-.592-.23-1.149-.65-1.569z"/></g><g><path d="m8.34 10.4 5.24 5.24-2.01 7.9c-.07.27-.27.47-.53.54-.07.02-.13.03-.2.03-.2 0-.39-.08-.53-.22l-5.93-5.92c-.25-.24-.29-.63-.11-.92l.51-.82h-1.82c-.2 0-.39-.08-.53-.22l-2.2-2.19c-.19-.19-.26-.46-.2-.72.07-.26.27-.46.53-.53z"/></g><g><path d="m16.28 13.47c-.19.61-.69 1.07-1.32 1.2l-.19.04-5.52-5.52.04-.21c.12-.62.57-1.12 1.19-1.31.61-.18 1.27-.02 1.72.43l3.64 3.65c.45.44.62 1.1.44 1.72z"/></g></svg>