<?xml version="1.0" encoding="iso-8859-1"?>
<!-- Generator: Adobe Illustrator 19.0.0, SVG Export Plug-In . SVG Version: 6.00 Build 0)  -->
<svg version="1.1" id="Layer_1" xmlns="http://www.w3.org/2000/svg" xmlns:xlink="http://www.w3.org/1999/xlink" x="0px" y="0px"
	 viewBox="0 0 330 330" style="enable-background:new 0 0 330 330;" xml:space="preserve">
<g id="XMLID_308_">
	<path id="XMLID_309_" d="M15,270h15v-30v-30V30h138.223v-0.001H270V15c0-8.284-6.716-15-15-15H15C6.716,0,0,6.716,0,15v240
		C0,263.284,6.716,270,15,270z"/>
	<path id="XMLID_311_" d="M315,60h-45v-0.001h-30V60H75c-8.284,0-15,6.716-15,15v135v30v30v11.777V315c0,8.284,6.716,15,15,15h240
		c8.284,0,15-6.716,15-15V75C330,66.716,323.284,60,315,60z"/>
</g>
<g>
</g>
<g>
</g>
<g>
</g>
<g>
</g>
<g>
</g>
<g>
</g>
<g>
</g>
<g>
</g>
<g>
</g>
<g>
</g>
<g>
</g>
<g>
</g>
<g>
</g>
<g>
</g>
<g>
</g>
</svg>
