<?xml version="1.0"?>
<svg xmlns="http://www.w3.org/2000/svg" id="Layer_1" data-name="Layer 1" viewBox="0 0 512 512" width="512" height="512"><title>Block ads</title><polygon points="197.241 264.843 231.741 264.843 214.645 206.933 197.241 264.843"/><path d="M304.408,198.961H283.947V290.6h20.461c13.489,0,20.62-7.684,20.62-22.221v-47.2C325.028,206.645,317.9,198.961,304.408,198.961Z"/><path d="M256,62C149.028,62,62,149.028,62,256s87.028,194,194,194,194-87.028,194-194S362.972,62,256,62ZM373.932,372.7a4.343,4.343,0,0,1-1.228,1.228A165.462,165.462,0,0,1,256,422c-91.533,0-166-74.467-166-166a165.462,165.462,0,0,1,48.068-116.7,5.971,5.971,0,0,1,.552-.676,6.071,6.071,0,0,1,.676-.553A165.466,165.466,0,0,1,256,90c91.533,0,166,74.467,166,166A165.462,165.462,0,0,1,373.932,372.7Z"/><path d="M256,102a153.412,153.412,0,0,0-104.512,41l48.681,48.681a6,6,0,1,1-8.485,8.484L143,151.488A153.418,153.418,0,0,0,102,256c0,84.916,69.084,154,154,154a153.412,153.412,0,0,0,104.512-41l-50.656-50.655a6,6,0,0,1,8.486-8.485L369,360.512A153.418,153.418,0,0,0,410,256C410,171.084,340.916,102,256,102Zm-8.55,201.764c-2.651,0-4.624-1.269-5.278-3.393l-6.936-23.488H193.9l-6.934,23.482c-.665,2.162-2.647,3.4-5.439,3.4-3.616,0-8.66-2.322-8.66-6.1a3.222,3.222,0,0,1,.251-1.168l.094-.269,32.637-106.391c1.1-3.682,5.269-4.994,8.8-4.994,3.595,0,7.709,1.543,8.8,4.99L256.11,296.309v.075a2.443,2.443,0,0,0,.08.563,2.527,2.527,0,0,1,.081.557C256.271,301.029,251.529,303.764,247.45,303.764Zm92.018-35.381c0,22.815-12.451,35.381-35.06,35.381H276.087c-4.119,0-6.58-2.614-6.58-5.14V190.941c0-2.527,2.461-5.14,6.58-5.14h28.321c22.609,0,35.06,12.565,35.06,35.381Z"/></svg>
