<?xml version="1.0" encoding="iso-8859-1"?>
<!-- Generator: Adobe Illustrator 19.0.0, SVG Export Plug-In . SVG Version: 6.00 Build 0)  -->
<svg version="1.1" id="Capa_1" xmlns="http://www.w3.org/2000/svg" xmlns:xlink="http://www.w3.org/1999/xlink" x="0px" y="0px"
	 viewBox="0 0 512 512" style="enable-background:new 0 0 512 512;" xml:space="preserve">
<g>
	<g>
		<path d="M256,91c-90.981,0-165,74.019-165,165s74.019,165,165,165s165-74.019,165-165S346.981,91,256,91z M337.68,328.48
			L241,264.027V121h30v126.973l83.32,55.547L337.68,328.48z"/>
	</g>
</g>
<g>
	<g>
		<path d="M256,0C115.39,0,0,115.39,0,256s115.39,256,256,256s256-115.39,256-256S396.61,0,256,0z M256,451
			c-107.52,0-195-87.48-195-195S148.48,61,256,61s195,87.48,195,195S363.52,451,256,451z"/>
	</g>
</g>
<g>
</g>
<g>
</g>
<g>
</g>
<g>
</g>
<g>
</g>
<g>
</g>
<g>
</g>
<g>
</g>
<g>
</g>
<g>
</g>
<g>
</g>
<g>
</g>
<g>
</g>
<g>
</g>
<g>
</g>
</svg>
